<!DOCTYPE svg PUBLIC "-//W3C//DTD SVG 1.1//EN" "http://www.w3.org/Graphics/SVG/1.1/DTD/svg11.dtd">

<!-- Uploaded to: SVG Repo, www.svgrepo.com, Transformed by: SVG Repo Mixer Tools -->
<svg fill="#6B7280" width="800px" height="800px" viewBox="-3.12 -3.12 30.24 30.24" xmlns="http://www.w3.org/2000/svg" stroke="#6B7280" strokeWidth="0.00024000000000000003" transform="rotate(0)matrix(-1, 0, 0, -1, 0, 0)">

<g id="SVGRepo_bgCarrier" strokeWidth="0"/>

<g id="SVGRepo_tracerCarrier" strokeLinecap="round" strokeLinejoin="round" stroke="#CCCCCC" strokeWidth="0.192"/>

<g id="SVGRepo_iconCarrier"> <g id="Grid__2-H" data-name="Grid _2-H"> <g> <path d="M18.437,11H5.565a2.5,2.5,0,0,1-2.5-2.5V5.564a2.5,2.5,0,0,1,2.5-2.5H18.437a2.5,2.5,0,0,1,2.5,2.5V8.5A2.5,2.5,0,0,1,18.437,11ZM5.565,4.064a1.5,1.5,0,0,0-1.5,1.5V8.5a1.5,1.5,0,0,0,1.5,1.5H18.437a1.5,1.5,0,0,0,1.5-1.5V5.564a1.5,1.5,0,0,0-1.5-1.5Z"/> <path d="M18.437,20.936H5.565a2.5,2.5,0,0,1-2.5-2.5V15.5a2.5,2.5,0,0,1,2.5-2.5H18.437a2.5,2.5,0,0,1,2.5,2.5v2.934A2.5,2.5,0,0,1,18.437,20.936ZM5.565,14a1.5,1.5,0,0,0-1.5,1.5v2.934a1.5,1.5,0,0,0,1.5,1.5H18.437a1.5,1.5,0,0,0,1.5-1.5V15.5a1.5,1.5,0,0,0-1.5-1.5Z"/> </g> </g> </g>

</svg>