<!DOCTYPE svg PUBLIC "-//W3C//DTD SVG 1.1//EN" "http://www.w3.org/Graphics/SVG/1.1/DTD/svg11.dtd">

<!-- Uploaded to: SVG Repo, www.svgrepo.com, Transformed by: SVG Repo Mixer Tools -->
<svg width="165px" height="165px" viewBox="-6.4 -6.4 76.80 76.80" xmlns="http://www.w3.org/2000/svg" strokeWidth="0.384" stroke="#000000" fill="none" transform="rotate(0)">

<g id="SVGRepo_bgCarrier" strokeWidth="0">
strokeLinejoin
<path transform="translate(-6.4, -6.4), scale(2.4)" d="M16,25.648545692364376C20.1034394550619,25.799139517209706,24.622470503327417,28.047354063540567,27.704416032549553,25.333960318366834C31.14757106957878,22.3025519912065,31.833942138397415,17.09139604806537,30.794471218985684,12.623258487213633C29.760158541697287,8.177293490258418,26.7714389399255,4.055815194083212,22.427794726930625,2.6525467167537222C18.53094239408599,1.3936199328497447,14.843085376123689,4.206043531061646,11.348462388681597,6.340982623136355C8.453285950480389,8.109707140367785,5.8412695956429594,10.217292019760388,4.773862393428743,13.437707348694252C3.5503789022633407,17.12901183068878,2.693523293151602,21.6498739131317,5.325455025590777,24.512665555519753C7.873393172177982,27.284096114097178,12.237852581355114,25.510477085379854,16,25.648545692364376" fill="#ffffff" strokewidth="0"/>

</g>

<g id="SVGRepo_tracerCarrier" strokeLinecap="round" stroke-linejoin="round"/>

<g id="SVGRepo_iconCarrier">

<path d="M52,27.18V52.76a2.92,2.92,0,0,1-3,2.84H15a2.92,2.92,0,0,1-3-2.84V27.17"/>

<polyline points="26.26 55.52 26.26 38.45 37.84 38.45 37.84 55.52"/>

<path d="M8.44,19.18s-1.1,7.76,6.45,8.94a7.17,7.17,0,0,0,6.1-2A7.43,7.43,0,0,0,32,26a7.4,7.4,0,0,0,5,2.49,11.82,11.82,0,0,0,5.9-2.15,6.66,6.66,0,0,0,4.67,2.15,8,8,0,0,0,7.93-9.3L50.78,9.05a1,1,0,0,0-.94-.65H14a1,1,0,0,0-.94.66Z"/>

<line x1="8.44" y1="19.18" x2="55.54" y2="19.18"/>

<line x1="21.04" y1="19.18" x2="21.04" y2="8.4"/>

<line x1="32.05" y1="19.18" x2="32.05" y2="8.4"/>

<line x1="43.01" y1="19.18" x2="43.01" y2="8.4"/>

</g>

</svg>